<svg xmlns="http://www.w3.org/2000/svg" width="1180" height="699" style="cursor: move;"><g transform="translate(-84.45302806071948,-11.998183804621249) scale(1.1064973530922726)"><path class="link" marker-end="" d="M600,316, 714,316" style="stroke-width: 1.06; stroke-opacity: 1; stroke: rgb(80, 80, 80); opacity: 1;"></path><path class="link" marker-end="" d="M600,360, 714,316" style="stroke-width: 1.06; stroke-opacity: 1; stroke: rgb(80, 80, 80); opacity: 1;"></path><path class="link" marker-end="" d="M600,404, 714,316" style="stroke-width: 1.06; stroke-opacity: 1; stroke: rgb(80, 80, 80); opacity: 1;"></path><path class="link" marker-end="" d="M600,448, 714,316" style="stroke-width: 1.06; stroke-opacity: 1; stroke: rgb(80, 80, 80); opacity: 1;"></path><path class="link" marker-end="" d="M600,316, 714,360" style="stroke-width: 1.06; stroke-opacity: 1; stroke: rgb(80, 80, 80); opacity: 1;"></path><path class="link" marker-end="" d="M600,360, 714,360" style="stroke-width: 1.06; stroke-opacity: 1; stroke: rgb(80, 80, 80); opacity: 1;"></path><path class="link" marker-end="" d="M600,404, 714,360" style="stroke-width: 1.06; stroke-opacity: 1; stroke: rgb(80, 80, 80); opacity: 1;"></path><path class="link" marker-end="" d="M600,448, 714,360" style="stroke-width: 1.06; stroke-opacity: 1; stroke: rgb(80, 80, 80); opacity: 1;"></path><path class="link" marker-end="" d="M600,316, 714,404" style="stroke-width: 1.06; stroke-opacity: 1; stroke: rgb(80, 80, 80); opacity: 1;"></path><path class="link" marker-end="" d="M600,360, 714,404" style="stroke-width: 1.06; stroke-opacity: 1; stroke: rgb(80, 80, 80); opacity: 1;"></path><path class="link" marker-end="" d="M600,404, 714,404" style="stroke-width: 1.06; stroke-opacity: 1; stroke: rgb(80, 80, 80); opacity: 1;"></path><path class="link" marker-end="" d="M600,448, 714,404" style="stroke-width: 1.06; stroke-opacity: 1; stroke: rgb(80, 80, 80); opacity: 1;"></path><path class="link" marker-end="" d="M600,316, 714,448" style="stroke-width: 1.06; stroke-opacity: 1; stroke: rgb(80, 80, 80); opacity: 1;"></path><path class="link" marker-end="" d="M600,360, 714,448" style="stroke-width: 1.06; stroke-opacity: 1; stroke: rgb(80, 80, 80); opacity: 1;"></path><path class="link" marker-end="" d="M600,404, 714,448" style="stroke-width: 1.06; stroke-opacity: 1; stroke: rgb(80, 80, 80); opacity: 1;"></path><path class="link" marker-end="" d="M600,448, 714,448" style="stroke-width: 1.06; stroke-opacity: 1; stroke: rgb(80, 80, 80); opacity: 1;"></path><path class="link" marker-end="" d="M600,316, 714,492" style="stroke-width: 1.06; stroke-opacity: 1; stroke: rgb(80, 80, 80); opacity: 1;"></path><path class="link" marker-end="" d="M600,360, 714,492" style="stroke-width: 1.06; stroke-opacity: 1; stroke: rgb(80, 80, 80); opacity: 1;"></path><path class="link" marker-end="" d="M600,404, 714,492" style="stroke-width: 1.06; stroke-opacity: 1; stroke: rgb(80, 80, 80); opacity: 1;"></path><path class="link" marker-end="" d="M600,448, 714,492" style="stroke-width: 1.06; stroke-opacity: 1; stroke: rgb(80, 80, 80); opacity: 1;"></path><path class="link" marker-end="" d="M714,272, 828,360" style="stroke-width: 1.06; stroke-opacity: 1; stroke: rgb(80, 80, 80); opacity: 1;"></path><path class="link" marker-end="" d="M714,316, 828,360" style="stroke-width: 1.06; stroke-opacity: 1; stroke: rgb(80, 80, 80); opacity: 1;"></path><path class="link" marker-end="" d="M714,360, 828,360" style="stroke-width: 1.06; stroke-opacity: 1; stroke: rgb(80, 80, 80); opacity: 1;"></path><path class="link" marker-end="" d="M714,404, 828,360" style="stroke-width: 1.06; stroke-opacity: 1; stroke: rgb(80, 80, 80); opacity: 1;"></path><path class="link" marker-end="" d="M714,448, 828,360" style="stroke-width: 1.06; stroke-opacity: 1; stroke: rgb(80, 80, 80); opacity: 1;"></path><path class="link" marker-end="" d="M714,492, 828,360" style="stroke-width: 1.06; stroke-opacity: 1; stroke: rgb(80, 80, 80); opacity: 1;"></path><path class="link" marker-end="" d="M714,272, 828,404" style="stroke-width: 1.06; stroke-opacity: 1; stroke: rgb(80, 80, 80); opacity: 1;"></path><path class="link" marker-end="" d="M714,316, 828,404" style="stroke-width: 1.06; stroke-opacity: 1; stroke: rgb(80, 80, 80); opacity: 1;"></path><path class="link" marker-end="" d="M714,360, 828,404" style="stroke-width: 1.06; stroke-opacity: 1; stroke: rgb(80, 80, 80); opacity: 1;"></path><path class="link" marker-end="" d="M714,404, 828,404" style="stroke-width: 1.06; stroke-opacity: 1; stroke: rgb(80, 80, 80); opacity: 1;"></path><path class="link" marker-end="" d="M714,448, 828,404" style="stroke-width: 1.06; stroke-opacity: 1; stroke: rgb(80, 80, 80); opacity: 1;"></path><path class="link" marker-end="" d="M714,492, 828,404" style="stroke-width: 1.06; stroke-opacity: 1; stroke: rgb(80, 80, 80); opacity: 1;"></path><path class="link" marker-end="" d="M714,272, 828,448" style="stroke-width: 1.06; stroke-opacity: 1; stroke: rgb(80, 80, 80); opacity: 1;"></path><path class="link" marker-end="" d="M714,316, 828,448" style="stroke-width: 1.06; stroke-opacity: 1; stroke: rgb(80, 80, 80); opacity: 1;"></path><path class="link" marker-end="" d="M714,360, 828,448" style="stroke-width: 1.06; stroke-opacity: 1; stroke: rgb(80, 80, 80); opacity: 1;"></path><path class="link" marker-end="" d="M714,404, 828,448" style="stroke-width: 1.06; stroke-opacity: 1; stroke: rgb(80, 80, 80); opacity: 1;"></path><path class="link" marker-end="" d="M714,448, 828,448" style="stroke-width: 1.06; stroke-opacity: 1; stroke: rgb(80, 80, 80); opacity: 1;"></path><path class="link" marker-end="" d="M714,492, 828,448" style="stroke-width: 1.06; stroke-opacity: 1; stroke: rgb(80, 80, 80); opacity: 1;"></path><path class="link" marker-end="" d="M828,316, 942,382" style="stroke-width: 1.06; stroke-opacity: 1; stroke: rgb(80, 80, 80); opacity: 1;"></path><path class="link" marker-end="" d="M828,360, 942,382" style="stroke-width: 1.06; stroke-opacity: 1; stroke: rgb(80, 80, 80); opacity: 1;"></path><path class="link" marker-end="" d="M828,404, 942,382" style="stroke-width: 1.06; stroke-opacity: 1; stroke: rgb(80, 80, 80); opacity: 1;"></path><path class="link" marker-end="" d="M828,448, 942,382" style="stroke-width: 1.06; stroke-opacity: 1; stroke: rgb(80, 80, 80); opacity: 1;"></path><circle r="12" class="node" id="0_0" cx="600" cy="316" style="fill: rgb(255, 255, 255); stroke: rgb(51, 51, 51); opacity: 1;"></circle><circle r="12" class="node" id="0_1" cx="600" cy="360" style="fill: rgb(255, 255, 255); stroke: rgb(51, 51, 51); opacity: 1;"></circle><circle r="12" class="node" id="0_2" cx="600" cy="404" style="fill: rgb(255, 255, 255); stroke: rgb(51, 51, 51); opacity: 1;"></circle><circle r="12" class="node" id="0_3" cx="600" cy="448" style="fill: rgb(255, 255, 255); stroke: rgb(51, 51, 51); opacity: 1;"></circle><circle r="12" class="node" id="1_0" cx="714" cy="272" style="fill: rgb(255, 255, 255); stroke: rgb(51, 51, 51); opacity: 1;"></circle><text class="text" dy=".35em" x="565" y="536" style="font-size: 12px;">Input Layer ∈ ℝ⁴</text><text class="text" dy=".35em" x="679" y="536" style="font-size: 12px;">Hidden Layer ∈ ℝ⁶</text><circle r="12" class="node" id="1_1" cx="714" cy="316" style="fill: rgb(255, 255, 255); stroke: rgb(51, 51, 51); opacity: 1;"></circle><circle r="12" class="node" id="1_2" cx="714" cy="360" style="fill: rgb(255, 255, 255); stroke: rgb(51, 51, 51); opacity: 1;"></circle><circle r="12" class="node" id="1_3" cx="714" cy="404" style="fill: rgb(255, 255, 255); stroke: rgb(51, 51, 51); opacity: 1;"></circle><circle r="12" class="node" id="1_4" cx="714" cy="448" style="fill: rgb(255, 255, 255); stroke: rgb(51, 51, 51); opacity: 1;"></circle><circle r="12" class="node" id="1_5" cx="714" cy="492" style="fill: rgb(255, 255, 255); stroke: rgb(51, 51, 51); opacity: 1;"></circle><circle r="12" class="node" id="2_0" cx="828" cy="316" style="fill: rgb(255, 255, 255); stroke: rgb(51, 51, 51); opacity: 1;"></circle><text class="text" dy=".35em" x="793" y="536" style="font-size: 12px;">Hidden Layer ∈ ℝ⁴</text><circle r="12" class="node" id="2_1" cx="828" cy="360" style="fill: rgb(255, 255, 255); stroke: rgb(51, 51, 51); opacity: 1;"></circle><circle r="12" class="node" id="2_2" cx="828" cy="404" style="fill: rgb(255, 255, 255); stroke: rgb(51, 51, 51); opacity: 1;"></circle><circle r="12" class="node" id="2_3" cx="828" cy="448" style="fill: rgb(255, 255, 255); stroke: rgb(51, 51, 51); opacity: 1;"></circle><circle r="12" class="node" id="3_0" cx="942" cy="382" style="fill: rgb(255, 255, 255); stroke: rgb(51, 51, 51); opacity: 1;"></circle><text class="text" dy=".35em" x="907" y="536" style="font-size: 12px;">Output Layer ∈ ℝ¹</text></g><defs><marker id="arrow" viewBox="0 -5 10 10" markerWidth="7" markerHeight="7" orient="auto" refX="45.599999999999994"><path d="M0,-5L10,0L0,5" style="stroke: rgb(80, 80, 80); fill: none;"></path></marker></defs></svg>